<?xml version="1.0" encoding="UTF-8" standalone="no"?>
<!-- Generator: Adobe Illustrator 19.0.0, SVG Export Plug-In . SVG Version: 6.00 Build 0)  -->

<svg
   xmlns:dc="http://purl.org/dc/elements/1.1/"
   xmlns:cc="http://creativecommons.org/ns#"
   xmlns:rdf="http://www.w3.org/1999/02/22-rdf-syntax-ns#"
   xmlns:svg="http://www.w3.org/2000/svg"
   xmlns="http://www.w3.org/2000/svg"
   xmlns:sodipodi="http://sodipodi.sourceforge.net/DTD/sodipodi-0.dtd"
   xmlns:inkscape="http://www.inkscape.org/namespaces/inkscape"
   version="1.1"
   id="Capa_1"
   x="0px"
   y="0px"
   viewBox="0 0 59.654 40.654"
   xml:space="preserve"
   sodipodi:docname="bicycle.svg"
   width="59.653999"
   height="40.653999"
   inkscape:version="0.92.2 5c3e80d, 2017-08-06"><metadata
     id="metadata57"><rdf:RDF><cc:Work
         rdf:about=""><dc:format>image/svg+xml</dc:format><dc:type
           rdf:resource="http://purl.org/dc/dcmitype/StillImage" /><dc:title></dc:title></cc:Work></rdf:RDF></metadata><defs
     id="defs55" /><sodipodi:namedview
     pagecolor="#ffffff"
     bordercolor="#666666"
     borderopacity="1"
     objecttolerance="10"
     gridtolerance="10"
     guidetolerance="10"
     inkscape:pageopacity="0"
     inkscape:pageshadow="2"
     inkscape:window-width="1920"
     inkscape:window-height="1048"
     id="namedview53"
     showgrid="false"
     inkscape:zoom="3.9561472"
     inkscape:cx="29.827"
     inkscape:cy="29.827"
     inkscape:window-x="0"
     inkscape:window-y="32"
     inkscape:window-maximized="1"
     inkscape:current-layer="Capa_1" /><g
     id="g84"
     transform="translate(0,-9.6474652)"><ellipse
       id="ellipse2"
       ry="10.974"
       rx="10.943"
       cy="35.903999"
       cx="11.943"
       style="fill:#546a79;stroke:#38454f;stroke-width:2;stroke-miterlimit:10" /><path
       id="path4"
       d="m 5.549,35.916 c -0.052,0 -0.105,-0.004 -0.159,-0.013 -0.545,-0.087 -0.917,-0.601 -0.829,-1.146 0.424,-2.646 2.231,-4.889 4.714,-5.853 0.515,-0.202 1.094,0.055 1.294,0.57 0.2,0.515 -0.056,1.094 -0.57,1.294 -1.796,0.697 -3.156,2.387 -3.463,4.305 -0.079,0.493 -0.504,0.843 -0.987,0.843 z"
       style="fill:#77909e"
       inkscape:connector-curvature="0" /><ellipse
       id="ellipse6"
       ry="10.974"
       rx="10.943"
       cy="35.903999"
       cx="47.710999"
       style="fill:#546a79;stroke:#38454f;stroke-width:2;stroke-miterlimit:10" /><path
       id="path8"
       d="m 43.315,22.353 c 4.629,-2.026 8.805,-0.92 12.003,1.446"
       style="fill:none;stroke:#38454f;stroke-width:2;stroke-linecap:round;stroke-miterlimit:10"
       inkscape:connector-curvature="0" /><line
       id="line10"
       y2="13.745"
       x2="22.75"
       y1="13.745"
       x1="20.75"
       style="fill:none;stroke:#38454f;stroke-width:2;stroke-linecap:round;stroke-miterlimit:10" /><path
       id="path12"
       d="m 48.405,36.002 c 0.043,-0.188 0.05,-0.385 -0.025,-0.578 L 42.3,19.744 h 0.45 c 0.552,0 1,-0.448 1,-1 0,-0.552 -0.448,-1 -1,-1 H 41.524 L 41.425,17.489 C 41.407,17.443 41.372,17.411 41.348,17.369 41.331,17.336 41.31,17.307 41.289,17.276 41.227,17.191 41.158,17.12 41.075,17.059 41.05,17.04 41.039,17.011 41.011,16.994 40.992,16.982 40.97,16.982 40.95,16.972 c -0.062,-0.032 -0.126,-0.051 -0.193,-0.07 -0.06,-0.017 -0.117,-0.035 -0.178,-0.04 -0.061,-0.006 -0.121,0.003 -0.183,0.009 -0.07,0.007 -0.137,0.014 -0.203,0.036 -0.02,0.006 -0.041,0.003 -0.061,0.011 -0.038,0.015 -0.064,0.044 -0.099,0.063 -0.062,0.033 -0.121,0.066 -0.176,0.112 -0.053,0.044 -0.094,0.095 -0.136,0.148 -0.026,0.033 -0.061,0.054 -0.083,0.09 l -0.249,0.412 h -16.61 c -0.001,0 -0.001,0 -0.002,0 H 22.75 c -0.059,0 -0.109,0.024 -0.165,0.033 -0.066,0.011 -0.132,0.009 -0.196,0.034 l -8.031,3.113 c -0.515,0.2 -0.771,0.779 -0.571,1.294 0.154,0.396 0.532,0.639 0.933,0.639 0.121,0 0.243,-0.022 0.361,-0.068 l 3.89,-1.508 9.753,15.163 c 0.006,0.009 0.015,0.016 0.021,0.025 0.013,0.019 0.03,0.034 0.044,0.052 10e-4,0.002 0.004,0.003 0.005,0.005 -0.016,0.072 -0.044,0.14 -0.044,0.217 0,0.552 0.448,1 1,1 h 18 c 0.552,0 1,-0.448 1,-1 0,-0.296 -0.137,-0.556 -0.345,-0.74 z m -27.531,-15.457 2.064,-0.8 h 15.24 l -8.639,14.271 z m 9.956,15.2 9.466,-15.637 6.064,15.637 z"
       style="fill:#c03a2b"
       inkscape:connector-curvature="0" /><path
       id="path14"
       d="m 55.174,35.916 c -0.483,0 -0.908,-0.35 -0.986,-0.842 -0.308,-1.918 -1.666,-3.608 -3.463,-4.305 -0.515,-0.2 -0.77,-0.779 -0.57,-1.294 0.199,-0.516 0.778,-0.771 1.294,-0.57 2.484,0.963 4.29,3.207 4.714,5.853 0.087,0.545 -0.284,1.058 -0.829,1.146 -0.055,0.009 -0.108,0.012 -0.16,0.012 z"
       style="fill:#77909e"
       inkscape:connector-curvature="0" /><path
       id="path16"
       d="m 20.794,11.776 c -3.937,0 -7.024,4.364 -7.071,9.956 l -2.981,13.964 c -0.115,0.541 0.229,1.072 0.769,1.187 0.071,0.015 0.141,0.022 0.21,0.022 0.462,0 0.876,-0.321 0.977,-0.791 l 2.999,-14.046 c 0.008,-0.036 -0.003,-0.07 0.001,-0.106 0.004,-0.036 0.021,-0.066 0.021,-0.103 0,-4.381 2.324,-8.082 5.075,-8.082 0.552,0 1,-0.448 1,-1 0,-0.552 -0.447,-1.001 -1,-1.001 z"
       style="fill:#bdc3c7"
       inkscape:connector-curvature="0" /><line
       id="line18"
       y2="18.745001"
       x2="40.75"
       y1="16.745001"
       x1="40.75"
       style="fill:none;stroke:#bdc3c7;stroke-width:2;stroke-linecap:round;stroke-miterlimit:10" /><line
       id="line20"
       y2="15.745"
       x2="43.75"
       y1="15.745"
       x1="37.75"
       style="fill:none;stroke:#cb8252;stroke-width:2;stroke-linecap:round;stroke-miterlimit:10" /><g
       id="g22" /><g
       id="g24" /><g
       id="g26" /><g
       id="g28" /><g
       id="g30" /><g
       id="g32" /><g
       id="g34" /><g
       id="g36" /><g
       id="g38" /><g
       id="g40" /><g
       id="g42" /><g
       id="g44" /><g
       id="g46" /><g
       id="g48" /><g
       id="g50" /></g></svg>